<svg width="152" height="175" viewBox="0 0 152 175" fill="none" xmlns="http://www.w3.org/2000/svg">
<path d="M116.3 82.4L112.8 81.1C112.2 80.9 111.5 81.2 111.2 81.8C111 82.4 111.3 83.1 111.9 83.4L115.4 84.7C119.7 86 127.9 91.1 127.9 100.3C127.9 112 120.2 116.2 113.5 116.2C106.9 116.2 101.7 110.2 101.7 105.3C101.7 102.7 102.3 94.4 110.1 94.4C116.7 94.4 118.2 99.4 118.2 101.2C118.2 104.4 117.4 106.5 113.6 106.5C112.1 106.5 111.5 105.9 111.2 105.4C110.3 103.9 110.9 101.5 111.1 101.1C111.5 100.6 111.4 99.8 110.9 99.4C110.4 99 109.6 99.1 109.2 99.6C108.4 100.6 107.8 104 109 106.3C109.6 107.5 110.9 109 113.7 109C118.4 109 120.8 106.4 120.8 101.2C120.8 97.6 117.9 92 110.3 92C102.3 92 99.5 98.9 99.5 105.4C99.5 112.3 106.5 118.8 113.8 118.8C122.2 118.8 130.6 113.1 130.6 100.4C130.5 89.7 121.2 83.9 116.3 82.4Z" fill="#333333"/>
<path d="M38.5 82.4L35 81.1C34.4 80.9 33.7 81.2 33.4 81.8C33.1 82.4 33.4999 83.1 34.0999 83.4L37.5999 84.7C41.8999 86 50.0999 91.1 50.0999 100.3C50.0999 112 42.4 116.2 35.7 116.2C29.1 116.2 23.9 110.2 23.9 105.3C23.9 102.7 24.4999 94.4 32.2999 94.4C38.9 94.4 40.4 99.4 40.4 101.2C40.4 104.4 39.5999 106.5 35.7999 106.5C34.2999 106.5 33.7 105.9 33.4 105.4C32.5 103.9 33.0999 101.5 33.2999 101.1C33.6999 100.6 33.5999 99.8 33.0999 99.4C32.5999 99 31.7999 99.1 31.4 99.6C30.5999 100.6 30 104 31.2 106.3C31.8 107.5 33.1 109 35.9 109C40.6 109 43 106.4 43 101.2C43 97.6 40.1 92 32.5 92C24.5 92 21.7 98.9 21.7 105.4C21.7 112.3 28.7 118.8 36 118.8C44.4 118.8 52.7999 113.1 52.7999 100.4C52.6999 89.7 43.2999 83.9 38.5 82.4Z" fill="#333333"/>
<path d="M78.6 102.9L75.1 101.6C74.5 101.4 73.8 101.7 73.5 102.3C73.3 102.9 73.6 103.6 74.2 103.9L77.7 105.2C82 106.5 90.2 111.5 90.2 120.8C90.2 132.5 82.5001 136.7 75.8001 136.7C69.2001 136.7 64 130.7 64 125.8C64 123.2 64.6001 114.9 72.4001 114.9C79.0001 114.9 80.5 119.9 80.5 121.7C80.5 124.9 79.7001 127 75.9001 127C74.4001 127 73.8 126.4 73.5 125.9C72.6 124.4 73.2001 122 73.4001 121.6C73.8001 121.1 73.7 120.3 73.2 119.9C72.7 119.5 71.9 119.6 71.5 120.1C70.7 121.1 70.1001 124.5 71.3001 126.8C71.9001 128 73.2 129.5 76 129.5C80.7001 129.5 83.1 126.9 83.1 121.7C83.1 118.1 80.2 112.5 72.6 112.5C64.6 112.5 61.8 119.4 61.8 125.9C61.8 132.8 68.8 139.3 76.1 139.3C84.5 139.3 92.9001 133.6 92.9001 120.9C92.8001 110.2 83.5 104.4 78.6 102.9Z" fill="#333333"/>
<path d="M151.3 58.3C151.3 36.8 133.9 19.3 112.3 19.3C110.8 19.3 109.2 19.4 107.7 19.6C106.1 18.1 104.5 16.4 102.7 14.3C93.4 2.89996 81.3 0.299957 76.1 0.399957C70.8 0.299957 58.8 2.89996 49.4001 14.3C47.7001 16.4 46 18.1 44.4001 19.6C42.9001 19.4 41.3 19.3 39.8 19.3C18.3 19.3 0.800049 36.7 0.800049 58.3C0.800049 67.9 4.30005 76.7999 10.1 83.6C7.90005 88.5 6.70005 93.9 6.70005 99.6C6.70005 118.9 20.7 134.9 39.1 138V170.8V174.9H43.2001H53H57V170.8V143.5C62.9001 147.2 69.9 149.4 77.5 149.4C84.2 149.4 90.5 147.7 96 144.7V170.9V175H100.1H109.9H114V170.9V136C131.9 132.5 145.4 116.7 145.4 97.8C145.4 92.6 144.4 87.7 142.5 83.1C148 76.2 151.3 67.6 151.3 58.3ZM51.8 16.3C60.5 5.79996 71.6 3.49996 76 3.69996C76.1 3.69996 76.2001 3.69996 76.3 3.69996L78.5 4.49996C82.8 5.79996 91 10.9 91 20.1C91 31.8 83.3 36 76.6 36C70 36 64.8 30 64.8 25.1C64.8 22.5 65.4 14.2 73.2 14.2C79.8 14.2 81.3 19.2 81.3 21C81.3 24.2 80.5 26.3 76.7 26.3C75.2 26.3 74.6001 25.7 74.3 25.2C73.4 23.7 74 21.3 74.2 20.9C74.6 20.4 74.5 19.6 74 19.2C73.5 18.8 72.7001 18.9 72.3 19.4C71.5 20.4 70.9 23.8 72.1 26.1C72.7 27.3 74 28.8 76.8 28.8C81.5 28.8 83.9 26.2 83.9 21C83.9 17.4 81 11.8 73.4 11.8C65.4 11.8 62.6 18.7 62.6 25.2C62.6 32.1 69.6 38.6 76.9 38.6C85.3 38.6 93.7 32.9 93.7 20.2C93.7 13.7 90.2001 8.99996 86.4 5.99996C90.9 7.89996 96 11.1 100.5 16.5C106.5 23.8 111.9 27.2 115.5 29.6C117.4 30.8 118.6 31.6 119.4 32.5C120.1 33.2 120.3 33.9 120.3 35C120.3 35.3 120 35.8 118.5 36.4C117.1 37 115 37.3 112.6 37.5C107.8 37.8 102 37.4 98.1 36.9L96.6 36.7L96 38.1C95.7 39.8 94.8 44.2 94 49C93.3 53.1 91.4 58 89.9 61.6C89.4 62.9 88.4 65.3 87.7 66.3C87 67.2 85.8 69.1 84.8 70C82.8 72 80.7 73.6 79.2 74.3C78.1 74.8 77.3 75 76.8 75.1C76.7001 75.1 76.5 75.1 76.4 75.2H76L75.4 75.1C75.4 75.1 75.4 75.1 75.3 75.1C74.8 75 74 74.7999 72.7 74.2C71.3 73.6 69.1 71.9 67.1 69.9C66.1 68.9 65.3 67.6 64.6 66.7C63.9 65.7999 62.5 62.8 61.9001 61.5C60.5 57.9 58.5 53 57.8 48.9C57 44.2 56.2001 39.7 55.8 38L55.5 36.5L54.6 36.6L52.9001 36.8C52.7001 36.8 52.5 36.8 52.4001 36.9C48.6001 37.3 43.7001 37.6 39.5 37.3C37.1 37.1 35 36.8 33.6 36.2C32.1 35.6 31.8 35.1 31.8 34.8C31.7 33.7 32 33 32.7001 32.3C33.5 31.5 34.7 30.7 36.6 29.4C40.4 27.1 45.7001 23.7 51.8 16.3ZM109.9 131.5V170H100.1V136C94.1 141.3 86.2 144.5 77.5 144.5C67.9 144.5 59.2001 140.5 52.9001 134.2V170H43.1V133.6C25 132.3 10.7 117.2 10.7 98.8C10.7 92.8 12.2 87.1 14.9 82.1C8.60005 75.7999 4.80005 67.1 4.80005 57.5C4.80005 38.2 20.4001 22.6 39.7001 22.6C40 22.6 40.4001 22.6 40.7001 22.6C38.5 24.3 36.6001 25.6 34.9001 26.6C33.1001 27.7 31.5 28.8 30.4 30C29.2 31.3 28.5 32.9 28.7001 35C28.9001 37.3 30.8 38.5 32.6 39.2C34.5 39.9 36.9001 40.3 39.5 40.5C44 40.8 49.2 40.5 53.1 40.1C53.5 42.2 54.2001 45.7 54.8 49.4C55.5 53.9 57.5 59.2 59 62.7C61.5 68.1 63.8 71.2 64.8 72.2C66.9 74.2999 69.4 76.2999 71.4 77.2C72.8 77.7999 73.9 78.1 74.6 78.3C75 78.4 75.3 78.4 75.7 78.4C75.8 78.4 75.9 78.4 76 78.4C76.1 78.4 76.2001 78.4 76.3 78.4C76.6001 78.4 77 78.4 77.4 78.3C78.2001 78.1 79.2 77.7999 80.6 77.2C82.6 76.2999 85.2 74.3999 87.2 72.2C90.4 68.7 92.5 64 93 62.7C94.4 59.2 96.5 53.9 97.2 49.4C97.8 45.7 98.5 42.3 98.9 40.1C102.8 40.5 108 40.8 112.5 40.5C115 40.3 117.5 39.9 119.4 39.2C121.2 38.5 123.1 37.2 123.3 35C123.5 32.9 122.8 31.3 121.6 30C120.5 28.8 118.8 27.7 117.1 26.6C115.5 25.5 113.5 24.3 111.3 22.6C111.6 22.6 112 22.6 112.3 22.6C131.6 22.6 147.2 38.2 147.2 57.5C147.2 66.7 143.6 75.1 137.7 81.4C140 86 141.3 91.3 141.3 96.8C141.3 114.9 127.6 129.8 109.9 131.5Z" fill="#333333"/>
</svg>
