<svg width="147" height="177" viewBox="0 0 147 177" fill="none" xmlns="http://www.w3.org/2000/svg">
<path d="M140.4 81.5C138.2 80.5 136 80.1 133.9 80.5C134.3 78.8 134.2 77.1 133.6 75.4C132.7 72.9 130.9 70.7999 128.4 69.5999C126.2 68.5999 123.7 68.3 121.3 68.9C122.2 64.6 120.1 60.0999 115.8 58.0999C113.7 57.0999 111.4 56.7999 109.2 57.2999L111.6 52.7999C121.7 52.0999 130.8 45.6 133.7 35.9C137.5 23.4 129.9 10.4 116.6 6.79995C110.2 5.09995 103.4 5.79995 97.5 8.79995C91.6 11.8 87.4 16.7999 85.5 22.9C83.6 28.9 84.4 35.2999 87.6 40.7999C88.7 42.7 90.1 44.4 91.7 45.9L66 93.2L53.1 77.5C54 76 54.8 74.2999 55.3 72.6C59.1 60.1 51.5 47.0999 38.2 43.5C31.8 41.7999 25 42.5 19.1 45.5C13.2 48.5 8.99995 53.5 7.09995 59.5999C5.29995 65.5999 5.99995 72 9.29995 77.5C12.5 83 17.9 87 24.3 88.7C26.6 89.2999 28.9 89.6 31.2 89.6C32.1 89.6 32.9 89.5 33.8 89.5L38.2 95.5C39.4 98 40.3 102.2 41.1 106.6C42.2 112.4 43.4 118.3 45.8 122.3C48.5 130.7 45.3 138.8 43.4 143.7C43.2 144.2 43 144.7 42.8 145.1C41.5 147.5 41.6 150.4 43 152.9C45.4 157.2 50.9 163.7 63.7 169.7C74.8 174.9 83 176.1 88.4 176.1C88.9 176.1 89.4 176.1 89.9 176C93.7 175.8 97 173.7 98.3 170.4C99.4 167.6 100.7 164.9 102.2 162.5C106.3 155.6 110.4 150.8 116.9 144C119.7 141 122.1 137.8 123.9 134.5L145.1 94.8C147.9 89.7 145.9 84.1 140.4 81.5ZM91.4 38.7999C88.7 34.1999 88.1 28.9 89.6 23.9C91.1 18.9 94.7 14.7 99.6 12.2C102.7 10.6 106.2 9.69995 109.7 9.69995C111.6 9.69995 113.6 9.99995 115.5 10.5C126.6 13.5 133 24.4 129.8 34.7999C127.6 42 121.3 47.0999 113.9 48.5L119.1 38.7999C121.5 33.9 119.5 28.1 114.4 25.7C111.9 24.5 109 24.3 106.3 25.2C103.6 26.1 101.5 27.9 100.2 30.2L93.8 42C92.9 41 92.1 40 91.4 38.7999ZM25.4 84.9C20 83.4 15.6 80.1 12.9 75.5C10.2 70.9 9.59995 65.5999 11.1 60.5999C12.6 55.5999 16.2 51.4 21.1 48.9C24.2 47.3 27.7 46.4 31.2 46.4C33.1 46.4 35.1 46.7 37 47.2C48.1 50.2 54.5 61.1 51.3 71.5C51 72.4 50.7 73.2 50.3 74.1L39.2 60.7C39.2 60.6 39.1 60.5999 39.1 60.5C34.7 56.2 29.5 55.4 24.9 58.5C18.2 62.9 18.8 68.8 21.7 72.9L31 85.7C29.2 85.7 27.3 85.5 25.4 84.9ZM141.4 93.1L120.2 132.8C118.6 135.8 116.5 138.7 113.8 141.5C107.1 148.6 102.9 153.5 98.6 160.7C97 163.3 95.6 166.2 94.4 169.3C93.7 171.1 91.9 172.2 89.8 172.3C85 172.5 77 171.7 65.6 166.3C53.2 160.5 48.5 154.3 46.8 151.2C46 149.7 45.9 148.2 46.7 146.8C46.7 146.7 46.8 146.7 46.8 146.6C47 146.1 47.2 145.7 47.4 145.1C49.5 139.8 53 130.8 49.8 121C49.8 120.9 49.7 120.7 49.6 120.6C47.5 117.2 46.3 111.4 45.2 105.9C44.3 101.2 43.4 96.7 41.8 93.7C41.7 93.6 41.7 93.5 41.6 93.4L25.1 70.7C23.4 68.2999 22.4 64.7999 27.2 61.7C27.8 61.2999 28.9 60.5999 30.6 60.5999C32 60.5999 33.9 61.2 36 63.2L64.8 98.1C65.2 98.6 65.9 98.9 66.6 98.9C67.3 98.8 67.9 98.4 68.3 97.8L103.9 32C104.7 30.5 106 29.4 107.6 28.9C109.2 28.4 110.9 28.5 112.4 29.2C115.4 30.6 116.7 34.0999 115.2 37.0999L101.7 62.2999C101.6 62.3999 101.6 62.5 101.5 62.5999L91.9 80.5C91.4 81.5 91.8 82.6 92.8 83.1C93.8 83.6 95.1 83.2 95.6 82.2L105.3 64C106.1 62.7 107.4 61.7 108.9 61.2C110.5 60.7 112.2 60.7999 113.7 61.5C116.8 63 118 66.5999 116.4 69.5999L106.8 87.5C106.3 88.5 106.7 89.6 107.7 90.1C108.7 90.6 110 90.2 110.5 89.2L118 76C118.8 74.5 120.1 73.4 121.7 72.9C123.3 72.4 125 72.5 126.5 73.2C128 73.8999 129.1 75.1 129.6 76.7C130.1 78.2999 130 79.9 129.2 81.4L126.6 86.3C126.6 86.3 126.6 86.4 126.5 86.4L122 94.8C121.5 95.8 121.9 96.9 122.9 97.4C123.9 97.9 125.2 97.5 125.7 96.5L130.2 88C131.1 86.4 132.3 85.2 133.7 84.7C135.1 84.1 136.7 84.2999 138.4 85.1C142.1 86.6 143.2 89.7999 141.4 93.1Z" fill="#333333"/>
</svg>
